<?xml version="1.0" encoding="utf-8"?>
<!-- Generator: Adobe Illustrator 23.0.1, SVG Export Plug-In . SVG Version: 6.00 Build 0)  -->
<svg version="1.1" id="Vrstva_1" xmlns="http://www.w3.org/2000/svg" xmlns:xlink="http://www.w3.org/1999/xlink" x="0px" y="0px"
	 viewBox="0 0 255.12 141.73" style="enable-background:new 0 0 255.12 141.73;" xml:space="preserve">
<style type="text/css">
	.st0{fill:#FFFFFF;}
	.st1{fill:#212120;}
	.st2{fill:#F67575;}
	.st3{fill:#1EB2A6;}
	.st4{fill:#FFFFFF;stroke:#FFFFFF;stroke-width:0.5;}
	.st5{fill:#FFFFFF;stroke:#FFFFFF;stroke-width:0.5;stroke-miterlimit:10;}
	.st6{fill:#F67575;stroke:#FFFFFF;stroke-width:0.5;}
	.st7{fill:#1EB2A6;stroke:#FFFFFF;stroke-width:0.5;}
	.st8{fill:#1EB2A6;stroke:#FFFFFF;stroke-width:0.5;stroke-miterlimit:10;}
	.st9{fill:#1EB2A6;stroke:#FFFFF6;stroke-width:0.5;}
	.st10{fill:#F67575;stroke:#FFFFFF;stroke-width:0.5;stroke-miterlimit:10;}
	.st11{font-family:'Gilroy-ExtraBold';}
	.st12{font-size:7.4593px;}
	.st13{font-size:7.408px;}
</style>
<g>
	<path class="st0" d="M55.93,115.97c0-32.76,0-65.53,0-98.29c40.76,0,81.53,0,122.29,0c0,37.5,0,74.99,0,112.49
		c-38.02,0-76.04,0-114.06,0c0.18-0.12,0.35-0.25,0.54-0.36c2.35-1.38,4.71-2.75,7.05-4.14c0.2-0.12,0.42-0.4,0.43-0.61
		c0.03-2.91,0.02-5.81,0.01-8.72c0-0.19-0.15-0.47-0.31-0.56c-2.48-1.47-4.97-2.93-7.48-4.37c-0.16-0.09-0.47-0.11-0.63-0.01
		C61.14,112.9,58.54,114.44,55.93,115.97z M153.08,104.6c0,1.42,0.02,2.85-0.01,4.27c-0.01,0.4,0.13,0.61,0.47,0.8
		c2.43,1.4,4.85,2.82,7.27,4.25c0.32,0.19,0.55,0.17,0.86-0.01c2.42-1.43,4.84-2.84,7.27-4.24c0.33-0.19,0.47-0.39,0.46-0.79
		c-0.02-2.81-0.02-5.61,0-8.42c0-0.39-0.12-0.61-0.45-0.8c-2.45-1.41-4.89-2.83-7.33-4.26c-0.26-0.16-0.47-0.19-0.75-0.02
		c-2.43,1.44-4.87,2.86-7.32,4.27c-0.37,0.21-0.48,0.46-0.47,0.86C153.09,101.87,153.08,103.24,153.08,104.6z M109.03,89.31
		c0,1.44,0.01,2.89-0.01,4.33c0,0.35,0.11,0.53,0.41,0.7c2.45,1.41,4.89,2.83,7.33,4.26c0.31,0.18,0.54,0.19,0.86,0.01
		c2.43-1.44,4.88-2.86,7.32-4.27c0.3-0.17,0.41-0.37,0.4-0.71c-0.01-2.83-0.02-5.65,0-8.48c0-0.4-0.14-0.61-0.47-0.8
		c-2.43-1.4-4.86-2.81-7.28-4.23c-0.29-0.17-0.5-0.19-0.8-0.01c-2.45,1.44-4.92,2.87-7.38,4.28c-0.3,0.17-0.4,0.37-0.4,0.71
		C109.04,86.51,109.03,87.91,109.03,89.31z M109.4,27.24c0,1.42,0.01,2.85-0.01,4.27c-0.01,0.37,0.12,0.57,0.44,0.75
		c2.43,1.4,4.86,2.81,7.28,4.23c0.31,0.18,0.53,0.2,0.86,0.01c2.43-1.44,4.88-2.85,7.33-4.26c0.3-0.17,0.41-0.37,0.4-0.71
		c-0.01-2.85-0.01-5.69,0-8.54c0-0.36-0.13-0.54-0.42-0.71c-2.46-1.42-4.92-2.86-7.39-4.28c-0.18-0.1-0.51-0.11-0.68-0.01
		c-2.49,1.42-4.96,2.88-7.44,4.31c-0.31,0.18-0.38,0.39-0.38,0.72C109.41,24.43,109.4,25.83,109.4,27.24z M143,89.29
		c0-1.38-0.01-2.77,0.01-4.15c0.01-0.4-0.09-0.64-0.46-0.86c-2.45-1.4-4.89-2.83-7.33-4.27c-0.31-0.18-0.53-0.14-0.81,0.02
		c-2.42,1.43-4.84,2.85-7.27,4.25c-0.34,0.2-0.46,0.4-0.46,0.8c0.02,2.81,0.02,5.61,0,8.42c0,0.36,0.09,0.58,0.42,0.76
		c2.45,1.41,4.89,2.84,7.32,4.27c0.28,0.17,0.49,0.2,0.8,0.02c2.45-1.45,4.91-2.88,7.38-4.3c0.33-0.19,0.42-0.4,0.41-0.76
		C142.99,92.1,143,90.69,143,89.29z M144.35,89.11c0,1.4,0.01,2.81-0.01,4.21c-0.01,0.41,0.11,0.64,0.47,0.85
		c2.42,1.38,4.83,2.79,7.23,4.2c0.33,0.2,0.57,0.2,0.91,0c2.4-1.42,4.81-2.81,7.23-4.2c0.33-0.19,0.48-0.39,0.48-0.79
		c-0.02-2.83-0.02-5.65,0-8.48c0-0.38-0.13-0.57-0.44-0.75c-2.45-1.41-4.89-2.84-7.34-4.24c-0.19-0.11-0.55-0.11-0.74,0
		c-2.46,1.4-4.89,2.83-7.34,4.24c-0.35,0.2-0.45,0.43-0.44,0.81C144.36,86.35,144.35,87.73,144.35,89.11z M117.78,104.9
		c0,1.42-0.02,2.85,0.02,4.27c0.01,0.22,0.18,0.53,0.37,0.64c2.43,1.44,4.88,2.85,7.32,4.28c0.31,0.18,0.54,0.2,0.86,0.01
		c2.43-1.44,4.88-2.86,7.33-4.26c0.3-0.17,0.4-0.37,0.4-0.71c-0.01-2.85-0.01-5.69,0-8.54c0-0.35-0.12-0.54-0.41-0.7
		c-2.47-1.42-4.93-2.85-7.38-4.29c-0.29-0.17-0.48-0.14-0.75,0.02c-2.44,1.43-4.88,2.85-7.33,4.26c-0.32,0.18-0.44,0.39-0.43,0.76
		C117.79,102.05,117.78,103.47,117.78,104.9z M107.71,89.51c0,0-0.01,0-0.01,0c0-1.42-0.01-2.85,0.01-4.27
		c0.01-0.36-0.09-0.58-0.41-0.76c-2.46-1.42-4.91-2.87-7.38-4.28c-0.19-0.11-0.54-0.11-0.73,0c-2.47,1.41-4.93,2.84-7.38,4.29
		c-0.19,0.11-0.37,0.42-0.38,0.64c-0.03,2.86-0.01,5.73-0.02,8.6c0,0.35,0.13,0.53,0.42,0.7c2.39,1.39,4.78,2.78,7.15,4.2
		c0.4,0.24,0.71,0.27,1.13,0.02c2.39-1.43,4.8-2.82,7.21-4.22c0.3-0.17,0.4-0.37,0.4-0.71C107.7,92.31,107.71,90.91,107.71,89.51z
		 M90.05,89.58c0-1.42-0.01-2.85,0.01-4.27c0.01-0.37-0.12-0.57-0.43-0.75c-2.43-1.4-4.85-2.81-7.27-4.24
		c-0.33-0.2-0.57-0.22-0.91-0.01c-2.41,1.43-4.83,2.85-7.26,4.25c-0.31,0.18-0.45,0.37-0.44,0.75c0.02,2.83,0.01,5.65,0,8.48
		c0,0.34,0.08,0.54,0.39,0.72c2.47,1.42,4.92,2.85,7.37,4.3c0.33,0.19,0.55,0.16,0.86-0.02c2.43-1.44,4.87-2.86,7.32-4.28
		c0.28-0.16,0.39-0.33,0.38-0.65C90.04,92.42,90.05,91,90.05,89.58z M98.95,73.96c0-1.4-0.01-2.81,0.01-4.21
		c0-0.37-0.11-0.57-0.43-0.76c-2.43-1.4-4.85-2.81-7.27-4.23c-0.31-0.18-0.55-0.21-0.87-0.02c-2.43,1.43-4.88,2.85-7.33,4.26
		c-0.29,0.17-0.42,0.34-0.42,0.7c0.02,2.87,0.01,5.73,0,8.6c0,0.32,0.09,0.49,0.37,0.66c2.43,1.39,4.86,2.8,7.27,4.23
		c0.37,0.22,0.64,0.24,1.02,0.01c2.39-1.42,4.8-2.82,7.22-4.21c0.32-0.18,0.44-0.39,0.43-0.75C98.93,76.81,98.95,75.38,98.95,73.96z
		 M100.31,73.92c0,1.42-0.02,2.85,0.02,4.27c0,0.22,0.16,0.54,0.35,0.65c2.45,1.45,4.91,2.87,7.37,4.31c0.29,0.17,0.5,0.18,0.8,0
		c2.45-1.44,4.92-2.86,7.39-4.28c0.3-0.17,0.39-0.38,0.39-0.72c-0.01-2.83-0.01-5.65,0-8.48c0-0.36-0.09-0.58-0.42-0.77
		c-2.47-1.41-4.92-2.85-7.4-4.26c-0.19-0.11-0.55-0.1-0.74,0.01c-2.45,1.4-4.89,2.83-7.34,4.24c-0.32,0.18-0.44,0.38-0.43,0.75
		C100.32,71.07,100.31,72.5,100.31,73.92z M151.74,104.73c0-1.4-0.01-2.81,0.01-4.21c0.01-0.38-0.09-0.61-0.44-0.81
		c-2.47-1.42-4.92-2.86-7.39-4.27c-0.18-0.1-0.51-0.1-0.68,0c-2.47,1.42-4.92,2.86-7.38,4.28c-0.32,0.19-0.42,0.4-0.42,0.76
		c0.01,2.81,0.01,5.61,0,8.42c0,0.39,0.1,0.61,0.45,0.81c2.43,1.4,4.85,2.81,7.27,4.24c0.32,0.19,0.54,0.19,0.86,0
		c2.43-1.43,4.87-2.86,7.32-4.26c0.32-0.19,0.42-0.4,0.42-0.76C151.73,107.53,151.74,106.13,151.74,104.73z M116.77,42.88
		c0-1.42-0.01-2.85,0.01-4.27c0-0.36-0.08-0.58-0.41-0.77c-2.47-1.41-4.92-2.86-7.39-4.26c-0.18-0.1-0.51-0.1-0.69,0
		c-2.47,1.41-4.92,2.85-7.39,4.27c-0.3,0.17-0.41,0.37-0.4,0.71c0.01,2.85,0.01,5.69,0,8.54c0,0.33,0.08,0.54,0.39,0.71
		c2.47,1.42,4.93,2.85,7.38,4.29c0.29,0.17,0.48,0.14,0.75-0.01c2.45-1.44,4.91-2.88,7.38-4.29c0.32-0.18,0.38-0.39,0.38-0.71
		C116.76,45.68,116.77,44.28,116.77,42.88z M89.86,120.66c0-1.44,0.02-2.89-0.02-4.33c-0.01-0.24-0.18-0.58-0.38-0.7
		c-2.45-1.45-4.91-2.88-7.38-4.29c-0.18-0.1-0.51-0.11-0.68-0.01c-2.49,1.42-4.97,2.86-7.43,4.32c-0.19,0.11-0.36,0.42-0.36,0.64
		c-0.02,2.87-0.02,5.73,0,8.6c0,0.22,0.17,0.54,0.36,0.65c2.45,1.45,4.92,2.87,7.37,4.31c0.3,0.18,0.51,0.16,0.8-0.01
		c2.44-1.43,4.89-2.84,7.32-4.28c0.2-0.12,0.39-0.45,0.39-0.69C89.88,123.47,89.86,122.06,89.86,120.66z M125.51,58.37
		c0-1.42-0.02-2.85,0.01-4.27c0.01-0.39-0.12-0.61-0.46-0.8c-2.45-1.41-4.88-2.85-7.33-4.25c-0.18-0.1-0.5-0.11-0.68-0.01
		c-2.48,1.43-4.96,2.87-7.42,4.34c-0.19,0.11-0.37,0.42-0.37,0.64c-0.02,2.87-0.02,5.73,0,8.6c0,0.22,0.18,0.53,0.36,0.64
		c2.41,1.44,4.84,2.84,7.25,4.27c0.38,0.23,0.65,0.2,1.02-0.02c2.39-1.42,4.8-2.83,7.21-4.22c0.31-0.18,0.4-0.37,0.4-0.71
		C125.5,61.18,125.51,59.78,125.51,58.37z M91.24,120.45c0,1.42,0.01,2.85-0.01,4.27c-0.01,0.36,0.1,0.57,0.42,0.76
		c2.43,1.39,4.86,2.8,7.28,4.22c0.33,0.19,0.56,0.22,0.91,0.01c2.41-1.43,4.84-2.83,7.27-4.23c0.32-0.18,0.43-0.4,0.42-0.76
		c-0.01-2.82-0.01-5.65,0-8.47c0-0.36-0.11-0.58-0.43-0.76c-2.45-1.41-4.89-2.82-7.32-4.26c-0.31-0.18-0.52-0.15-0.81,0.02
		c-2.42,1.42-4.84,2.83-7.28,4.21c-0.37,0.21-0.47,0.45-0.47,0.85C91.25,117.68,91.24,119.07,91.24,120.45z M178.1,120.1
		c0-1.44,0.02-2.89-0.02-4.33c0-0.22-0.18-0.53-0.36-0.64c-2.44-1.46-4.9-2.89-7.37-4.3c-0.19-0.11-0.55-0.09-0.74,0.02
		c-2.47,1.41-4.92,2.85-7.37,4.3c-0.19,0.11-0.36,0.43-0.36,0.65c-0.02,2.86-0.02,5.73,0,8.59c0,0.22,0.18,0.53,0.36,0.64
		c2.46,1.47,4.93,2.91,7.42,4.34c0.17,0.1,0.5,0.1,0.68,0c2.47-1.41,4.92-2.86,7.38-4.28c0.3-0.18,0.39-0.38,0.39-0.71
		C178.09,122.94,178.1,121.52,178.1,120.1z M98.79,105.06c0-1.44-0.01-2.89,0.01-4.33c0-0.34-0.11-0.54-0.41-0.71
		c-2.47-1.42-4.92-2.86-7.4-4.26c-0.19-0.11-0.54-0.1-0.73,0.01c-2.47,1.41-4.93,2.85-7.38,4.3c-0.19,0.11-0.36,0.42-0.36,0.64
		c-0.02,2.87-0.02,5.73,0,8.6c0,0.22,0.18,0.53,0.36,0.64c2.41,1.43,4.85,2.83,7.26,4.26c0.36,0.21,0.61,0.21,0.97,0
		c2.4-1.42,4.81-2.82,7.23-4.19c0.35-0.2,0.45-0.43,0.44-0.81C98.78,107.82,98.79,106.44,98.79,105.06z M125.16,120.47
		c0-1.42-0.01-2.85,0.01-4.27c0-0.36-0.09-0.57-0.42-0.76c-2.45-1.41-4.88-2.84-7.32-4.28c-0.3-0.18-0.52-0.17-0.81,0
		c-2.43,1.43-4.87,2.86-7.32,4.27c-0.32,0.18-0.43,0.39-0.43,0.75c0.02,2.83,0.03,5.65,0.02,8.48c0,0.37,0.12,0.57,0.44,0.75
		c2.41,1.39,4.82,2.8,7.22,4.22c0.35,0.21,0.6,0.23,0.96,0.01c2.39-1.42,4.8-2.83,7.22-4.22c0.34-0.2,0.45-0.42,0.45-0.81
		C125.14,123.23,125.16,121.85,125.16,120.47z M151.9,73.74c-0.01,0-0.02,0-0.03,0c0-1.4-0.01-2.81,0.01-4.21
		c0.01-0.4-0.1-0.65-0.47-0.86c-2.44-1.39-4.86-2.8-7.28-4.22c-0.27-0.16-0.47-0.18-0.75-0.01c-2.44,1.43-4.88,2.85-7.33,4.25
		c-0.31,0.18-0.44,0.37-0.44,0.75c0.02,2.85,0.01,5.69,0,8.54c0,0.34,0.09,0.54,0.4,0.71c2.45,1.41,4.89,2.83,7.33,4.26
		c0.29,0.17,0.51,0.18,0.81,0.01c2.44-1.43,4.88-2.85,7.33-4.25c0.32-0.19,0.43-0.4,0.43-0.76C151.89,76.54,151.9,75.14,151.9,73.74
		z M126.54,120.24c0,1.44,0.01,2.89-0.01,4.33c0,0.35,0.11,0.53,0.41,0.7c2.45,1.41,4.89,2.83,7.33,4.26
		c0.29,0.17,0.51,0.19,0.81,0.01c2.43-1.44,4.88-2.86,7.33-4.27c0.29-0.17,0.42-0.35,0.41-0.7c-0.01-2.85-0.01-5.69,0-8.54
		c0-0.37-0.12-0.57-0.44-0.75c-2.45-1.4-4.89-2.83-7.35-4.23c-0.19-0.11-0.55-0.11-0.74-0.01c-2.46,1.4-4.89,2.83-7.34,4.24
		c-0.31,0.18-0.44,0.38-0.43,0.75C126.56,117.44,126.54,118.84,126.54,120.24z M134.43,42.74c0-1.42,0.02-2.85-0.02-4.27
		c0-0.23-0.16-0.55-0.34-0.66c-2.48-1.47-4.98-2.92-7.48-4.35c-0.15-0.09-0.43-0.09-0.58,0c-2.5,1.43-5,2.88-7.48,4.34
		c-0.18,0.1-0.34,0.4-0.34,0.61c-0.02,2.89-0.02,5.77,0,8.66c0,0.22,0.18,0.53,0.37,0.64c2.43,1.44,4.88,2.84,7.32,4.27
		c0.32,0.19,0.54,0.18,0.85-0.01c2.44-1.43,4.89-2.84,7.32-4.28c0.19-0.11,0.36-0.42,0.37-0.64
		C134.45,45.63,134.43,44.19,134.43,42.74z M116.43,104.95c0-1.42-0.01-2.85,0.01-4.27c0-0.36-0.09-0.57-0.42-0.76
		c-2.45-1.4-4.89-2.84-7.34-4.24c-0.21-0.12-0.59-0.12-0.79,0c-2.46,1.4-4.89,2.84-7.34,4.25c-0.3,0.17-0.4,0.37-0.4,0.71
		c0.01,2.85,0.01,5.69,0,8.54c0,0.34,0.09,0.54,0.4,0.71c2.45,1.41,4.89,2.83,7.33,4.26c0.32,0.19,0.55,0.18,0.87,0
		c2.43-1.44,4.88-2.85,7.31-4.29c0.19-0.11,0.36-0.42,0.36-0.64C116.45,107.8,116.43,106.37,116.43,104.95z M143.15,58.2
		c0-1.42-0.01-2.85,0.01-4.27c0-0.34-0.11-0.54-0.4-0.71c-2.47-1.42-4.92-2.86-7.39-4.27c-0.18-0.1-0.51-0.11-0.68-0.01
		c-2.47,1.41-4.93,2.85-7.39,4.27c-0.29,0.17-0.42,0.35-0.41,0.7c0.02,2.87,0,5.73,0.02,8.6c0,0.22,0.17,0.53,0.36,0.64
		c2.43,1.44,4.88,2.85,7.31,4.28c0.31,0.18,0.55,0.19,0.87,0.01c2.43-1.43,4.88-2.84,7.31-4.28c0.19-0.11,0.37-0.42,0.37-0.63
		C143.17,61.09,143.15,59.64,143.15,58.2z M81.13,105.15c0-1.44-0.01-2.89,0.01-4.33c0-0.34-0.1-0.54-0.4-0.71
		c-2.45-1.41-4.89-2.83-7.33-4.26c-0.3-0.17-0.51-0.17-0.8,0c-2.44,1.43-4.88,2.85-7.34,4.25c-0.32,0.19-0.42,0.4-0.42,0.76
		c0.01,2.83,0.01,5.65,0,8.48c0,0.36,0.1,0.57,0.43,0.76c2.44,1.39,4.87,2.8,7.28,4.23c0.34,0.2,0.58,0.19,0.91-0.01
		c2.4-1.42,4.81-2.82,7.23-4.2c0.35-0.2,0.45-0.43,0.44-0.81C81.12,107.92,81.13,106.54,81.13,105.15z M117.97,73.75
		c0,1.44,0.01,2.89-0.01,4.33c0,0.32,0.09,0.5,0.37,0.66c2.47,1.42,4.93,2.85,7.38,4.29c0.3,0.18,0.51,0.16,0.8-0.01
		c2.42-1.42,4.84-2.83,7.28-4.23c0.34-0.2,0.46-0.42,0.45-0.81c-0.02-2.81-0.02-5.61,0-8.42c0-0.38-0.1-0.61-0.45-0.81
		c-2.45-1.4-4.89-2.84-7.34-4.24c-0.18-0.1-0.51-0.11-0.69-0.01c-2.49,1.42-4.97,2.86-7.43,4.32c-0.19,0.11-0.35,0.42-0.36,0.65
		C117.95,70.9,117.97,72.33,117.97,73.75z M107.85,58.43c0-1.4-0.01-2.81,0.01-4.21c0.01-0.38-0.09-0.61-0.43-0.81
		c-2.45-1.41-4.88-2.85-7.33-4.25c-0.19-0.11-0.54-0.11-0.73-0.01c-2.47,1.41-4.92,2.86-7.38,4.28c-0.3,0.17-0.4,0.37-0.4,0.71
		c0.01,2.85,0.01,5.69,0,8.54c0,0.35,0.11,0.53,0.41,0.7c2.45,1.41,4.88,2.84,7.31,4.28c0.33,0.19,0.56,0.15,0.86-0.03
		c2.41-1.43,4.84-2.85,7.27-4.25c0.33-0.19,0.42-0.4,0.42-0.76C107.84,61.24,107.85,59.84,107.85,58.43z M160.46,120.26
		c0-1.44-0.01-2.88,0.01-4.33c0-0.35-0.11-0.54-0.41-0.71c-2.47-1.41-4.92-2.85-7.39-4.26c-0.18-0.1-0.51-0.12-0.69-0.02
		c-2.49,1.42-4.96,2.86-7.43,4.31c-0.19,0.11-0.36,0.43-0.36,0.65c-0.02,2.86-0.01,5.73-0.02,8.59c0,0.35,0.12,0.54,0.41,0.71
		c2.47,1.41,4.92,2.85,7.39,4.26c0.18,0.1,0.5,0.11,0.68,0.02c2.49-1.42,4.96-2.86,7.43-4.32c0.19-0.11,0.36-0.42,0.36-0.64
		C160.48,123.1,160.46,121.68,160.46,120.26z"/>
	<path class="st1" d="M55.93,115.94c2.61-1.53,5.21-3.07,7.83-4.58c0.16-0.09,0.47-0.08,0.63,0.01c2.5,1.44,4.99,2.89,7.48,4.37
		c0.16,0.1,0.31,0.37,0.31,0.56c0.02,2.91,0.02,5.81-0.01,8.72c0,0.21-0.23,0.49-0.43,0.61c-2.34,1.4-4.7,2.76-7.05,4.14
		c-0.19,0.11-0.36,0.24-0.54,0.36c-0.08,0-0.16,0-0.24,0c-0.15-0.12-0.3-0.25-0.46-0.35c-1.8-1.06-3.6-2.12-5.4-3.16
		c-0.7-0.41-1.42-0.79-2.13-1.18C55.93,122.27,55.93,119.1,55.93,115.94z M71.55,120.63c0-1.3,0.02-2.6-0.02-3.91
		c-0.01-0.22-0.18-0.53-0.37-0.64c-2.23-1.34-4.48-2.65-6.74-3.95c-0.19-0.11-0.55-0.1-0.74,0.01c-2.24,1.28-4.46,2.61-6.7,3.9
		c-0.33,0.19-0.42,0.41-0.42,0.77c0.01,2.56,0.01,5.13,0,7.69c0,0.37,0.12,0.57,0.44,0.75c2.22,1.28,4.43,2.58,6.64,3.88
		c0.29,0.17,0.51,0.2,0.81,0.02c2.22-1.32,4.45-2.62,6.69-3.92c0.29-0.17,0.42-0.35,0.41-0.7
		C71.54,123.24,71.55,121.94,71.55,120.63z"/>
	<path class="st1" d="M153.07,104.6c0-1.36,0.01-2.73-0.01-4.09c-0.01-0.41,0.1-0.65,0.47-0.86c2.45-1.41,4.89-2.83,7.32-4.27
		c0.29-0.17,0.49-0.14,0.75,0.02c2.44,1.43,4.88,2.85,7.33,4.26c0.34,0.19,0.46,0.41,0.45,0.8c-0.02,2.81-0.02,5.61,0,8.42
		c0,0.4-0.13,0.6-0.46,0.79c-2.43,1.4-4.86,2.81-7.27,4.24c-0.31,0.18-0.54,0.2-0.86,0.01c-2.41-1.43-4.84-2.85-7.27-4.25
		c-0.33-0.19-0.48-0.4-0.47-0.8C153.09,107.45,153.07,106.03,153.07,104.6z M153.74,104.67c0,1.28,0.01,2.56-0.01,3.85
		c-0.01,0.36,0.09,0.57,0.42,0.76c2.22,1.28,4.44,2.57,6.65,3.88c0.28,0.17,0.5,0.2,0.81,0.02c2.23-1.32,4.46-2.62,6.7-3.9
		c0.33-0.19,0.42-0.4,0.42-0.76c-0.01-2.56-0.01-5.13,0-7.69c0-0.36-0.11-0.57-0.43-0.76c-2.22-1.28-4.44-2.57-6.65-3.87
		c-0.31-0.18-0.54-0.2-0.86-0.01c-2.21,1.31-4.42,2.6-6.64,3.88c-0.33,0.19-0.42,0.4-0.41,0.76
		C153.75,102.1,153.74,103.39,153.74,104.67z"/>
	<path class="st2" d="M109.02,89.32c0-1.4,0.01-2.81-0.01-4.21c0-0.34,0.09-0.54,0.4-0.71c2.47-1.41,4.93-2.84,7.38-4.28
		c0.3-0.18,0.52-0.16,0.8,0.01c2.42,1.42,4.84,2.83,7.28,4.23c0.33,0.19,0.47,0.4,0.47,0.8c-0.02,2.83-0.02,5.65,0,8.48
		c0,0.34-0.1,0.54-0.4,0.71c-2.45,1.41-4.89,2.83-7.32,4.27c-0.32,0.19-0.55,0.18-0.86-0.01c-2.44-1.43-4.88-2.85-7.33-4.26
		c-0.3-0.17-0.41-0.35-0.41-0.7C109.03,92.2,109.02,90.76,109.02,89.32z M109.69,89.38c0,1.24,0.02,2.48-0.01,3.73
		c-0.01,0.45,0.11,0.71,0.52,0.95c2.21,1.25,4.4,2.55,6.62,3.81c0.19,0.11,0.54,0.11,0.73,0c2.25-1.28,4.47-2.59,6.71-3.88
		c0.3-0.17,0.41-0.36,0.41-0.71c-0.01-2.6-0.01-5.21,0-7.81c0-0.35-0.12-0.53-0.41-0.7c-2.19-1.26-4.37-2.53-6.55-3.81
		c-0.37-0.22-0.64-0.24-1.02-0.01c-2.19,1.3-4.39,2.57-6.6,3.83c-0.3,0.17-0.41,0.36-0.41,0.71
		C109.7,86.77,109.69,88.08,109.69,89.38z"/>
	<path class="st2" d="M109.39,27.24c0-1.4,0.01-2.81-0.01-4.21c0-0.33,0.07-0.55,0.38-0.72c2.48-1.43,4.95-2.88,7.44-4.31
		c0.17-0.1,0.51-0.09,0.68,0.01c2.47,1.41,4.93,2.85,7.39,4.28c0.28,0.16,0.42,0.35,0.42,0.71c-0.02,2.85-0.01,5.69,0,8.54
		c0,0.34-0.1,0.54-0.4,0.71c-2.45,1.41-4.9,2.83-7.33,4.26c-0.32,0.19-0.55,0.17-0.86-0.01c-2.42-1.42-4.84-2.83-7.28-4.23
		c-0.31-0.18-0.44-0.38-0.44-0.75C109.41,30.09,109.39,28.66,109.39,27.24z M125.02,27.3c0-1.3-0.01-2.61,0.01-3.91
		c0-0.33-0.07-0.54-0.38-0.72c-2.23-1.28-4.44-2.57-6.65-3.88c-0.34-0.2-0.59-0.18-0.92,0.01c-2.19,1.3-4.39,2.58-6.6,3.85
		c-0.33,0.19-0.42,0.4-0.41,0.76c0.01,2.57,0.02,5.13,0,7.7c0,0.4,0.12,0.6,0.46,0.8c2.19,1.25,4.38,2.52,6.55,3.81
		c0.36,0.21,0.62,0.18,0.96-0.02c2.18-1.28,4.36-2.55,6.55-3.81c0.32-0.18,0.45-0.38,0.44-0.75C125,29.86,125.02,28.58,125.02,27.3z
		"/>
	<path class="st2" d="M143,89.29c0,1.4-0.01,2.81,0.01,4.21c0,0.36-0.09,0.58-0.41,0.76c-2.47,1.42-4.93,2.85-7.38,4.3
		c-0.31,0.18-0.52,0.15-0.8-0.02c-2.43-1.43-4.87-2.86-7.32-4.27c-0.32-0.19-0.42-0.4-0.42-0.76c0.01-2.81,0.02-5.61,0-8.42
		c0-0.39,0.12-0.6,0.46-0.8c2.43-1.4,4.85-2.82,7.27-4.25c0.29-0.17,0.51-0.21,0.81-0.02c2.43,1.44,4.87,2.87,7.33,4.27
		c0.38,0.22,0.47,0.46,0.46,0.86C142.99,86.52,143,87.91,143,89.29z M142.33,89.31c0-1.3-0.01-2.6,0.01-3.91
		c0-0.34-0.1-0.54-0.4-0.71c-2.24-1.29-4.48-2.59-6.7-3.9c-0.3-0.17-0.51-0.18-0.81,0c-2.23,1.32-4.47,2.61-6.69,3.93
		c-0.19,0.11-0.37,0.42-0.37,0.64c-0.03,2.62-0.02,5.25,0,7.87c0,0.2,0.17,0.49,0.34,0.6c2.26,1.34,4.52,2.67,6.8,3.97
		c0.16,0.09,0.47,0.1,0.63,0.01c2.28-1.3,4.54-2.64,6.82-3.94c0.31-0.18,0.39-0.39,0.38-0.72
		C142.32,91.88,142.33,90.59,142.33,89.31z"/>
	<path class="st1" d="M144.35,89.12c0-1.38,0.01-2.77-0.01-4.15c-0.01-0.38,0.09-0.61,0.44-0.81c2.45-1.4,4.89-2.84,7.34-4.24
		c0.19-0.11,0.55-0.11,0.74,0c2.46,1.4,4.89,2.83,7.34,4.24c0.31,0.18,0.45,0.38,0.44,0.75c-0.02,2.83-0.02,5.65,0,8.48
		c0,0.41-0.15,0.61-0.48,0.79c-2.42,1.39-4.83,2.79-7.23,4.2c-0.34,0.2-0.58,0.19-0.91,0c-2.4-1.41-4.81-2.82-7.23-4.2
		c-0.36-0.21-0.48-0.45-0.47-0.85C144.36,91.92,144.35,90.52,144.35,89.12z M145.02,89.12c0,1.3,0.01,2.61-0.01,3.91
		c-0.01,0.37,0.11,0.57,0.43,0.75c2.23,1.27,4.45,2.56,6.66,3.87c0.3,0.18,0.52,0.15,0.81-0.01c2.21-1.3,4.43-2.59,6.66-3.87
		c0.29-0.17,0.41-0.35,0.41-0.7c-0.01-2.61-0.01-5.21,0-7.82c0-0.35-0.11-0.53-0.41-0.71c-2.23-1.28-4.45-2.56-6.66-3.87
		c-0.32-0.19-0.55-0.17-0.86,0.01c-2.19,1.29-4.4,2.57-6.61,3.84c-0.32,0.18-0.45,0.38-0.44,0.75
		C145.03,86.56,145.02,87.84,145.02,89.12z"/>
	<path class="st3" d="M117.77,104.9c0-1.42,0.01-2.85-0.01-4.27c-0.01-0.37,0.11-0.58,0.43-0.76c2.45-1.41,4.89-2.83,7.33-4.26
		c0.27-0.16,0.46-0.19,0.75-0.02c2.45,1.44,4.91,2.87,7.38,4.29c0.29,0.17,0.41,0.35,0.41,0.7c-0.01,2.85-0.01,5.69,0,8.54
		c0,0.34-0.09,0.54-0.4,0.71c-2.45,1.41-4.89,2.83-7.33,4.26c-0.32,0.19-0.55,0.17-0.86-0.01c-2.44-1.43-4.89-2.84-7.32-4.28
		c-0.19-0.11-0.37-0.42-0.37-0.64C117.76,107.75,117.77,106.32,117.77,104.9z M118.43,104.84c0,1.28,0.01,2.57-0.01,3.85
		c-0.01,0.39,0.1,0.61,0.44,0.81c2.25,1.28,4.47,2.6,6.72,3.88c0.17,0.1,0.5,0.08,0.68-0.02c2.23-1.27,4.44-2.57,6.67-3.86
		c0.3-0.17,0.47-0.34,0.47-0.73c-0.02-2.61-0.02-5.21,0-7.82c0-0.35-0.13-0.53-0.42-0.7c-2.21-1.27-4.41-2.55-6.6-3.84
		c-0.33-0.2-0.58-0.21-0.92-0.01c-2.21,1.31-4.43,2.59-6.66,3.87c-0.28,0.16-0.39,0.33-0.38,0.66
		C118.45,102.24,118.43,103.54,118.43,104.84z"/>
	<path class="st3" d="M107.71,89.51c0,1.4-0.01,2.81,0.01,4.21c0,0.34-0.1,0.54-0.4,0.71c-2.41,1.39-4.82,2.79-7.21,4.22
		c-0.42,0.25-0.72,0.22-1.13-0.02c-2.38-1.41-4.76-2.81-7.15-4.2c-0.29-0.17-0.42-0.35-0.42-0.7c0.01-2.87,0-5.73,0.02-8.6
		c0-0.22,0.19-0.53,0.38-0.64c2.45-1.45,4.9-2.88,7.38-4.29c0.19-0.11,0.54-0.11,0.73,0c2.47,1.41,4.92,2.86,7.38,4.28
		c0.32,0.19,0.42,0.4,0.41,0.76c-0.02,1.42-0.01,2.85-0.01,4.27C107.7,89.51,107.7,89.51,107.71,89.51z M107.06,89.47
		c-0.01,0-0.02,0-0.03,0c0-1.28-0.02-2.57,0.01-3.85c0.01-0.4-0.13-0.61-0.47-0.8c-2.21-1.27-4.4-2.56-6.59-3.86
		c-0.31-0.18-0.54-0.19-0.86,0c-2.21,1.31-4.43,2.6-6.65,3.88c-0.29,0.17-0.41,0.35-0.41,0.7c0.02,2.61,0.02,5.21,0,7.82
		c0,0.35,0.12,0.53,0.41,0.7c2.24,1.3,4.47,2.6,6.7,3.92c0.28,0.16,0.47,0.17,0.75,0c2.23-1.32,4.46-2.62,6.7-3.91
		c0.34-0.2,0.45-0.42,0.45-0.81C107.05,92,107.06,90.73,107.06,89.47z"/>
	<path class="st1" d="M90.05,89.58c0,1.42-0.01,2.85,0.01,4.27c0,0.33-0.1,0.49-0.38,0.65c-2.45,1.41-4.88,2.84-7.32,4.28
		c-0.31,0.18-0.53,0.22-0.86,0.02c-2.45-1.45-4.91-2.88-7.37-4.3c-0.31-0.18-0.39-0.38-0.39-0.72c0.01-2.83,0.01-5.65,0-8.48
		c0-0.37,0.13-0.57,0.44-0.75c2.43-1.4,4.85-2.82,7.26-4.25c0.34-0.2,0.58-0.18,0.91,0.01c2.41,1.43,4.84,2.84,7.27,4.24
		c0.32,0.18,0.44,0.38,0.43,0.75C90.03,86.73,90.05,88.16,90.05,89.58z M74.41,89.56c0,1.3,0.01,2.61-0.01,3.91
		c0,0.33,0.1,0.5,0.38,0.66c2.26,1.3,4.5,2.63,6.77,3.92c0.19,0.11,0.54,0.1,0.73-0.01c2.25-1.28,4.47-2.6,6.71-3.89
		c0.29-0.17,0.42-0.35,0.42-0.71c-0.01-2.59-0.01-5.17,0-7.76c0-0.34-0.1-0.54-0.4-0.72c-2.26-1.3-4.51-2.62-6.75-3.94
		c-0.28-0.17-0.48-0.15-0.75,0.01c-2.23,1.32-4.46,2.63-6.7,3.92c-0.33,0.19-0.42,0.41-0.41,0.77C74.42,87,74.41,88.28,74.41,89.56z
		"/>
	<path class="st1" d="M98.94,73.96c0,1.42-0.01,2.85,0.01,4.27c0,0.37-0.11,0.57-0.43,0.75c-2.41,1.39-4.82,2.79-7.22,4.21
		c-0.38,0.23-0.65,0.21-1.02-0.01c-2.41-1.43-4.84-2.83-7.27-4.23c-0.29-0.16-0.37-0.34-0.37-0.66c0.01-2.87,0.01-5.73,0-8.6
		c0-0.35,0.13-0.53,0.42-0.7c2.45-1.41,4.89-2.83,7.33-4.26c0.32-0.19,0.56-0.16,0.87,0.02c2.42,1.42,4.84,2.84,7.27,4.23
		c0.32,0.19,0.44,0.39,0.43,0.76C98.93,71.16,98.94,72.56,98.94,73.96z M83.28,73.92c0,1.3,0.02,2.61-0.01,3.91
		c-0.01,0.4,0.13,0.61,0.47,0.8c2.23,1.27,4.44,2.58,6.67,3.85c0.19,0.11,0.55,0.13,0.74,0.02c2.26-1.29,4.52-2.6,6.76-3.93
		c0.18-0.11,0.36-0.38,0.36-0.58c0.02-2.65,0.02-5.29,0-7.94c0-0.21-0.17-0.5-0.34-0.6c-2.24-1.33-4.49-2.64-6.76-3.93
		c-0.19-0.11-0.55-0.11-0.74,0c-2.27,1.29-4.52,2.59-6.76,3.92c-0.19,0.11-0.36,0.42-0.37,0.64C83.27,71.36,83.28,72.64,83.28,73.92
		z"/>
	<path class="st2" d="M100.3,73.92c0-1.42,0.01-2.85-0.01-4.27c-0.01-0.37,0.11-0.57,0.43-0.75c2.45-1.41,4.88-2.84,7.34-4.24
		c0.19-0.11,0.55-0.11,0.74-0.01c2.47,1.41,4.93,2.85,7.4,4.26c0.33,0.19,0.42,0.41,0.42,0.77c-0.01,2.83-0.01,5.65,0,8.48
		c0,0.34-0.09,0.55-0.39,0.72c-2.47,1.41-4.93,2.84-7.39,4.28c-0.3,0.18-0.51,0.17-0.8,0c-2.45-1.44-4.92-2.86-7.37-4.31
		c-0.18-0.11-0.34-0.42-0.35-0.65C100.29,76.77,100.3,75.34,100.3,73.92z M115.94,73.93c0-1.28-0.01-2.57,0.01-3.85
		c0.01-0.38-0.09-0.61-0.44-0.81c-2.2-1.25-4.38-2.52-6.56-3.81c-0.37-0.22-0.65-0.23-1.02-0.01c-2.17,1.29-4.36,2.56-6.55,3.82
		c-0.35,0.2-0.45,0.43-0.44,0.81c0.02,2.53,0.02,5.05,0,7.58c0,0.43,0.12,0.68,0.5,0.9c2.21,1.26,4.41,2.56,6.62,3.81
		c0.19,0.11,0.54,0.12,0.73,0.01c2.25-1.27,4.48-2.58,6.73-3.86c0.32-0.18,0.44-0.38,0.43-0.75
		C115.93,76.49,115.94,75.21,115.94,73.93z"/>
	<path class="st1" d="M151.73,104.73c0,1.4-0.01,2.81,0.01,4.21c0.01,0.36-0.09,0.58-0.42,0.76c-2.45,1.41-4.89,2.83-7.32,4.26
		c-0.32,0.19-0.54,0.18-0.86,0c-2.41-1.43-4.83-2.84-7.27-4.24c-0.34-0.2-0.45-0.42-0.45-0.81c0.02-2.81,0.01-5.61,0-8.42
		c0-0.36,0.1-0.58,0.42-0.76c2.46-1.42,4.91-2.87,7.38-4.28c0.18-0.1,0.51-0.1,0.68,0c2.47,1.41,4.92,2.86,7.39,4.27
		c0.35,0.2,0.44,0.43,0.44,0.81C151.72,101.93,151.73,103.33,151.73,104.73z M136.09,104.68c0,1.32-0.01,2.64,0.01,3.97
		c0,0.21,0.15,0.5,0.32,0.6c2.27,1.35,4.56,2.68,6.85,4c0.15,0.09,0.43,0.09,0.57,0.01c2.29-1.31,4.58-2.64,6.86-3.99
		c0.19-0.11,0.37-0.42,0.37-0.64c0.03-2.6,0.03-5.21,0-7.81c0-0.22-0.18-0.54-0.36-0.65c-2.26-1.34-4.52-2.66-6.8-3.96
		c-0.17-0.1-0.5-0.1-0.68,0c-2.26,1.29-4.5,2.62-6.76,3.92c-0.3,0.17-0.4,0.37-0.39,0.71C136.11,102.12,136.09,103.4,136.09,104.68z
		"/>
	<path class="st2" d="M116.77,42.88c0,1.4-0.01,2.81,0.01,4.21c0,0.33-0.07,0.53-0.38,0.71c-2.47,1.41-4.93,2.85-7.38,4.29
		c-0.27,0.16-0.46,0.18-0.75,0.01c-2.45-1.45-4.91-2.88-7.38-4.29c-0.31-0.18-0.39-0.38-0.39-0.71c0.01-2.85,0.01-5.69,0-8.54
		c0-0.34,0.11-0.54,0.4-0.71c2.47-1.42,4.92-2.86,7.39-4.27c0.18-0.1,0.51-0.1,0.69,0c2.47,1.41,4.93,2.85,7.39,4.26
		c0.33,0.19,0.41,0.41,0.41,0.77C116.76,40.03,116.77,41.46,116.77,42.88z M101.14,42.83c0,1.32-0.01,2.65,0.02,3.97
		c0,0.2,0.17,0.49,0.34,0.59c2.26,1.34,4.53,2.66,6.82,3.96c0.16,0.09,0.47,0.09,0.63,0c2.28-1.3,4.55-2.62,6.81-3.96
		c0.17-0.1,0.34-0.4,0.34-0.61c0.02-2.63,0.02-5.25,0-7.88c0-0.22-0.19-0.53-0.38-0.64c-2.22-1.32-4.46-2.63-6.71-3.91
		c-0.19-0.11-0.55-0.13-0.74-0.02c-2.27,1.29-4.52,2.6-6.76,3.94c-0.19,0.11-0.35,0.42-0.36,0.65
		C101.12,40.22,101.14,41.52,101.14,42.83z"/>
	<path class="st1" d="M89.85,120.66c0,1.4,0.02,2.81-0.02,4.21c-0.01,0.24-0.19,0.57-0.39,0.69c-2.43,1.44-4.88,2.85-7.32,4.28
		c-0.29,0.17-0.5,0.18-0.8,0.01c-2.45-1.44-4.92-2.86-7.37-4.31c-0.19-0.11-0.36-0.42-0.36-0.65c-0.02-2.87-0.02-5.73,0-8.6
		c0-0.22,0.18-0.53,0.36-0.64c2.46-1.46,4.94-2.9,7.43-4.32c0.17-0.1,0.5-0.09,0.68,0.01c2.47,1.41,4.93,2.84,7.38,4.29
		c0.2,0.12,0.38,0.46,0.38,0.7C89.87,117.78,89.85,119.22,89.85,120.66z M89.21,120.65c0-1.32-0.01-2.64,0.01-3.97
		c0-0.32-0.08-0.5-0.36-0.67c-2.26-1.3-4.5-2.62-6.77-3.91c-0.19-0.11-0.54-0.11-0.73,0c-2.25,1.28-4.48,2.58-6.7,3.9
		c-0.2,0.12-0.39,0.45-0.4,0.69c-0.03,2.6-0.03,5.21,0,7.81c0,0.23,0.21,0.56,0.41,0.68c2.22,1.32,4.46,2.62,6.7,3.9
		c0.18,0.1,0.5,0.11,0.68,0.01c2.28-1.3,4.55-2.62,6.81-3.96c0.17-0.1,0.33-0.39,0.34-0.59C89.22,123.25,89.21,121.95,89.21,120.65z
		"/>
	<path class="st2" d="M125.5,58.38c0,1.4-0.01,2.81,0.01,4.21c0,0.34-0.09,0.53-0.4,0.71c-2.41,1.39-4.82,2.8-7.21,4.22
		c-0.37,0.22-0.64,0.24-1.02,0.02c-2.41-1.43-4.84-2.83-7.25-4.27c-0.19-0.11-0.36-0.42-0.36-0.64c-0.02-2.87-0.02-5.73,0-8.6
		c0-0.22,0.18-0.53,0.37-0.64c2.46-1.47,4.94-2.91,7.42-4.34c0.17-0.1,0.5-0.09,0.68,0.01c2.45,1.4,4.88,2.84,7.33,4.25
		c0.34,0.19,0.46,0.41,0.46,0.8C125.49,55.53,125.5,56.95,125.5,58.38z M124.87,58.36c0-1.3-0.01-2.6,0.01-3.91
		c0-0.34-0.09-0.54-0.39-0.71c-2.22-1.28-4.43-2.58-6.64-3.89c-0.33-0.2-0.59-0.2-0.92,0c-2.21,1.31-4.42,2.61-6.64,3.89
		c-0.3,0.17-0.41,0.37-0.4,0.71c0.01,2.58,0.01,5.17,0,7.75c0,0.34,0.1,0.54,0.4,0.71c2.26,1.3,4.5,2.63,6.76,3.92
		c0.18,0.1,0.5,0.1,0.68,0c2.26-1.29,4.5-2.62,6.76-3.92c0.3-0.17,0.41-0.36,0.4-0.71C124.86,60.92,124.87,59.64,124.87,58.36z"/>
	<path class="st1" d="M91.23,120.45c0-1.38,0.01-2.77-0.01-4.15c-0.01-0.4,0.09-0.64,0.47-0.85c2.44-1.38,4.86-2.8,7.28-4.21
		c0.29-0.17,0.5-0.2,0.81-0.02c2.43,1.43,4.88,2.85,7.32,4.26c0.32,0.18,0.43,0.4,0.43,0.76c-0.01,2.82-0.01,5.65,0,8.47
		c0,0.36-0.1,0.58-0.42,0.76c-2.43,1.4-4.86,2.8-7.27,4.23c-0.35,0.2-0.58,0.18-0.91-0.01c-2.42-1.42-4.85-2.82-7.28-4.22
		c-0.32-0.18-0.42-0.4-0.42-0.76C91.24,123.3,91.23,121.87,91.23,120.45z M106.87,120.5c0-1.32,0.01-2.64-0.02-3.97
		c0-0.21-0.16-0.49-0.33-0.6c-2.22-1.32-4.46-2.61-6.68-3.93c-0.34-0.2-0.59-0.18-0.91,0.01c-2.21,1.3-4.43,2.59-6.65,3.87
		c-0.29,0.17-0.41,0.36-0.41,0.71c0.02,2.58,0.02,5.17,0,7.75c0,0.37,0.11,0.58,0.43,0.76c2.24,1.28,4.47,2.59,6.72,3.86
		c0.19,0.11,0.54,0.12,0.73,0.01c2.26-1.29,4.51-2.61,6.77-3.9c0.28-0.16,0.37-0.34,0.37-0.66
		C106.86,123.1,106.87,121.8,106.87,120.5z"/>
	<path class="st1" d="M178.09,120.1c0,1.42-0.01,2.85,0.01,4.27c0,0.34-0.09,0.54-0.39,0.71c-2.46,1.42-4.91,2.87-7.38,4.28
		c-0.17,0.1-0.5,0.1-0.68,0c-2.48-1.43-4.96-2.87-7.42-4.34c-0.19-0.11-0.36-0.42-0.36-0.64c-0.02-2.86-0.02-5.73,0-8.59
		c0-0.22,0.17-0.54,0.36-0.65c2.44-1.46,4.9-2.89,7.37-4.3c0.19-0.11,0.55-0.12,0.74-0.02c2.47,1.41,4.92,2.85,7.37,4.3
		c0.19,0.11,0.36,0.42,0.36,0.64C178.11,117.21,178.09,118.66,178.09,120.1z M162.5,120.07c0,1.28,0.02,2.56-0.01,3.85
		c-0.01,0.4,0.13,0.61,0.47,0.8c2.22,1.28,4.44,2.57,6.65,3.88c0.3,0.18,0.52,0.16,0.81-0.01c2.21-1.3,4.42-2.6,6.65-3.88
		c0.31-0.18,0.44-0.38,0.44-0.75c-0.02-2.58-0.02-5.17,0-7.75c0-0.35-0.12-0.54-0.41-0.7c-2.24-1.29-4.46-2.61-6.71-3.89
		c-0.19-0.11-0.55-0.13-0.73-0.02c-2.26,1.29-4.5,2.62-6.76,3.92c-0.3,0.17-0.4,0.38-0.39,0.72
		C162.51,117.5,162.5,118.79,162.5,120.07z"/>
	<path class="st1" d="M98.79,105.06c0,1.38-0.01,2.77,0.01,4.15c0.01,0.38-0.09,0.6-0.44,0.81c-2.42,1.38-4.83,2.78-7.23,4.19
		c-0.36,0.21-0.61,0.21-0.97,0c-2.42-1.43-4.85-2.82-7.26-4.26c-0.19-0.11-0.36-0.42-0.36-0.64c-0.02-2.87-0.02-5.73,0-8.6
		c0-0.22,0.17-0.53,0.36-0.64c2.45-1.45,4.91-2.89,7.38-4.3c0.19-0.11,0.54-0.12,0.73-0.01c2.47,1.41,4.93,2.85,7.4,4.26
		c0.3,0.17,0.41,0.36,0.41,0.71C98.78,102.17,98.79,103.62,98.79,105.06z M98.15,105c0-1.3,0.02-2.61-0.02-3.91
		c-0.01-0.22-0.18-0.53-0.37-0.64c-2.22-1.32-4.47-2.61-6.7-3.92c-0.32-0.19-0.56-0.18-0.87,0.01c-2.21,1.3-4.43,2.6-6.65,3.88
		c-0.3,0.17-0.42,0.36-0.41,0.71c0.01,2.59,0.02,5.17,0,7.76c0,0.37,0.12,0.57,0.44,0.75c2.23,1.28,4.45,2.57,6.66,3.87
		c0.29,0.17,0.51,0.19,0.81,0.01c2.23-1.31,4.47-2.61,6.71-3.89c0.3-0.17,0.42-0.36,0.41-0.71C98.14,107.6,98.15,106.3,98.15,105z"
		/>
	<path class="st3" d="M125.15,120.47c0,1.38-0.01,2.77,0.01,4.15c0.01,0.39-0.1,0.61-0.45,0.81c-2.41,1.39-4.82,2.79-7.22,4.22
		c-0.36,0.21-0.62,0.19-0.96-0.01c-2.4-1.42-4.8-2.82-7.22-4.22c-0.31-0.18-0.44-0.38-0.44-0.75c0.01-2.83,0.01-5.65-0.02-8.48
		c0-0.37,0.11-0.57,0.43-0.75c2.45-1.41,4.89-2.84,7.32-4.27c0.29-0.17,0.51-0.18,0.81,0c2.43,1.44,4.87,2.87,7.32,4.28
		c0.33,0.19,0.42,0.4,0.42,0.76C125.14,117.62,125.15,119.05,125.15,120.47z M124.52,120.48c0-1.32,0.02-2.64-0.02-3.97
		c-0.01-0.22-0.18-0.53-0.36-0.65c-2.22-1.33-4.46-2.62-6.68-3.94c-0.32-0.19-0.55-0.19-0.86,0c-2.23,1.32-4.47,2.61-6.69,3.93
		c-0.19,0.11-0.38,0.42-0.38,0.64c-0.02,2.6-0.01,5.21,0.02,7.81c0,0.23,0.2,0.56,0.41,0.68c2.22,1.33,4.45,2.63,6.69,3.92
		c0.19,0.11,0.55,0.12,0.74,0.01c2.26-1.29,4.51-2.61,6.75-3.94c0.19-0.11,0.36-0.42,0.37-0.64
		C124.53,123.05,124.52,121.77,124.52,120.48z"/>
	<path class="st1" d="M151.9,73.74c0,1.4-0.01,2.81,0.01,4.21c0,0.36-0.1,0.57-0.43,0.76c-2.45,1.4-4.9,2.82-7.33,4.25
		c-0.3,0.18-0.52,0.17-0.81-0.01c-2.44-1.43-4.88-2.85-7.33-4.26c-0.31-0.18-0.4-0.37-0.4-0.71c0.01-2.85,0.01-5.69,0-8.54
		c0-0.38,0.13-0.57,0.44-0.75c2.45-1.41,4.9-2.82,7.33-4.25c0.29-0.17,0.48-0.15,0.75,0.01c2.42,1.42,4.85,2.83,7.28,4.22
		c0.37,0.21,0.47,0.45,0.47,0.86c-0.02,1.4-0.01,2.81-0.01,4.21C151.88,73.74,151.89,73.74,151.9,73.74z M151.25,73.73
		c0,0-0.01,0-0.01,0c0-1.32,0.01-2.65-0.02-3.97c0-0.21-0.16-0.5-0.34-0.6c-2.24-1.33-4.49-2.64-6.76-3.93
		c-0.19-0.11-0.55-0.12-0.74-0.02c-2.28,1.3-4.55,2.62-6.81,3.96c-0.16,0.1-0.32,0.37-0.32,0.56c-0.02,2.65-0.02,5.29,0,7.94
		c0,0.2,0.17,0.49,0.35,0.6c2.26,1.34,4.53,2.65,6.81,3.95c0.17,0.1,0.5,0.08,0.68-0.02c2.27-1.29,4.52-2.59,6.77-3.92
		c0.19-0.11,0.36-0.42,0.36-0.64C151.27,76.34,151.25,75.03,151.25,73.73z"/>
	<path class="st2" d="M126.54,120.25c0-1.4,0.01-2.81-0.01-4.21c-0.01-0.37,0.12-0.57,0.43-0.75c2.45-1.41,4.89-2.84,7.34-4.24
		c0.19-0.11,0.54-0.1,0.74,0.01c2.46,1.4,4.9,2.82,7.35,4.23c0.31,0.18,0.44,0.38,0.44,0.75c-0.02,2.85-0.01,5.69,0,8.54
		c0,0.35-0.12,0.53-0.41,0.7c-2.45,1.41-4.89,2.83-7.33,4.27c-0.3,0.18-0.52,0.16-0.81-0.01c-2.44-1.43-4.88-2.85-7.33-4.26
		c-0.3-0.17-0.41-0.35-0.41-0.7C126.55,123.13,126.54,121.69,126.54,120.25z M142.18,120.31c0-1.3-0.01-2.61,0.01-3.91
		c0-0.34-0.1-0.54-0.4-0.71c-2.25-1.28-4.48-2.58-6.71-3.89c-0.3-0.17-0.52-0.17-0.81,0c-2.21,1.3-4.43,2.59-6.66,3.87
		c-0.32,0.18-0.44,0.38-0.44,0.75c0.02,2.59,0.02,5.17,0,7.76c0,0.35,0.11,0.54,0.41,0.71c2.26,1.3,4.51,2.62,6.77,3.91
		c0.18,0.1,0.51,0.1,0.69,0c2.26-1.29,4.51-2.62,6.77-3.91c0.31-0.18,0.39-0.39,0.38-0.72
		C142.17,122.88,142.18,121.59,142.18,120.31z"/>
	<path class="st1" d="M134.43,42.75c0,1.44,0.02,2.89-0.02,4.33c-0.01,0.22-0.18,0.53-0.37,0.64c-2.43,1.44-4.88,2.84-7.32,4.28
		c-0.31,0.18-0.53,0.2-0.85,0.01c-2.43-1.43-4.89-2.84-7.32-4.27c-0.19-0.11-0.37-0.42-0.37-0.64c-0.02-2.89-0.02-5.77,0-8.66
		c0-0.21,0.17-0.5,0.34-0.61c2.48-1.47,4.98-2.91,7.48-4.34c0.15-0.09,0.43-0.08,0.58,0c2.5,1.43,5,2.88,7.48,4.35
		c0.18,0.11,0.34,0.43,0.34,0.66C134.44,39.9,134.43,41.32,134.43,42.75z M133.78,42.8c0-1.28-0.01-2.56,0.01-3.85
		c0.01-0.38-0.09-0.61-0.44-0.81c-2.23-1.27-4.44-2.57-6.65-3.87c-0.29-0.17-0.52-0.17-0.81,0c-2.23,1.31-4.47,2.6-6.69,3.92
		c-0.19,0.11-0.37,0.42-0.37,0.63c-0.03,2.62-0.03,5.25,0,7.87c0,0.22,0.18,0.53,0.37,0.64c2.24,1.33,4.5,2.63,6.76,3.92
		c0.17,0.1,0.5,0.1,0.67,0.01c2.25-1.28,4.48-2.59,6.72-3.87c0.35-0.2,0.45-0.42,0.45-0.81C133.77,45.32,133.78,44.06,133.78,42.8z"
		/>
	<path class="st3" d="M116.43,104.95c0,1.42,0.02,2.85-0.02,4.27c-0.01,0.22-0.18,0.53-0.36,0.64c-2.43,1.44-4.88,2.86-7.31,4.29
		c-0.31,0.19-0.55,0.19-0.87,0c-2.44-1.43-4.88-2.85-7.33-4.26c-0.31-0.18-0.4-0.38-0.4-0.71c0.01-2.85,0.01-5.69,0-8.54
		c0-0.34,0.1-0.54,0.4-0.71c2.45-1.41,4.88-2.85,7.34-4.25c0.2-0.12,0.59-0.12,0.79,0c2.46,1.4,4.89,2.83,7.34,4.24
		c0.33,0.19,0.42,0.4,0.42,0.76C116.42,102.1,116.43,103.53,116.43,104.95z M115.79,104.93c0-1.3,0.02-2.61-0.02-3.91
		c-0.01-0.23-0.17-0.54-0.35-0.65c-2.24-1.33-4.5-2.64-6.76-3.93c-0.19-0.11-0.55-0.13-0.74-0.02c-2.28,1.3-4.55,2.62-6.81,3.96
		c-0.16,0.1-0.31,0.37-0.32,0.56c-0.02,2.65-0.02,5.29,0,7.94c0,0.2,0.17,0.49,0.34,0.6c2.26,1.34,4.53,2.66,6.81,3.96
		c0.18,0.1,0.51,0.1,0.69-0.01c2.26-1.29,4.51-2.62,6.77-3.92c0.31-0.18,0.39-0.39,0.38-0.72
		C115.79,107.49,115.79,106.21,115.79,104.93z"/>
	<path class="st1" d="M143.15,58.2c0,1.44,0.02,2.89-0.02,4.33c0,0.22-0.18,0.52-0.37,0.63c-2.43,1.44-4.88,2.85-7.31,4.28
		c-0.32,0.19-0.55,0.18-0.87-0.01c-2.44-1.43-4.88-2.84-7.31-4.28c-0.19-0.11-0.36-0.42-0.36-0.64c-0.02-2.87-0.01-5.73-0.02-8.6
		c0-0.35,0.13-0.54,0.41-0.7c2.46-1.42,4.92-2.86,7.39-4.27c0.17-0.1,0.5-0.09,0.68,0.01c2.47,1.41,4.92,2.85,7.39,4.27
		c0.29,0.17,0.41,0.36,0.4,0.71C143.14,55.36,143.15,56.78,143.15,58.2z M127.52,58.19c0,1.3,0.01,2.61-0.01,3.91
		c0,0.34,0.1,0.54,0.4,0.71c2.25,1.29,4.48,2.6,6.72,3.87c0.19,0.11,0.54,0.12,0.73,0.01c2.25-1.28,4.49-2.57,6.71-3.9
		c0.2-0.12,0.41-0.45,0.41-0.68c0.03-2.61,0.03-5.21,0-7.82c0-0.22-0.18-0.53-0.37-0.65c-2.22-1.32-4.47-2.61-6.69-3.93
		c-0.33-0.19-0.56-0.16-0.86,0.02c-2.21,1.3-4.43,2.6-6.66,3.87c-0.3,0.17-0.4,0.38-0.4,0.72
		C127.53,55.62,127.52,56.91,127.52,58.19z"/>
	<path class="st1" d="M81.12,105.16c0,1.38-0.01,2.77,0.01,4.15c0.01,0.38-0.09,0.61-0.44,0.81c-2.42,1.38-4.83,2.79-7.23,4.2
		c-0.33,0.2-0.57,0.21-0.91,0.01c-2.42-1.43-4.85-2.83-7.28-4.23c-0.32-0.18-0.43-0.39-0.43-0.76c0.01-2.83,0.01-5.65,0-8.48
		c0-0.36,0.09-0.58,0.42-0.76c2.45-1.4,4.9-2.82,7.34-4.25c0.29-0.17,0.51-0.17,0.8,0c2.44,1.43,4.88,2.85,7.33,4.26
		c0.3,0.17,0.41,0.37,0.4,0.71C81.11,102.27,81.12,103.71,81.12,105.16z M80.49,105.15c0-1.32-0.01-2.64,0.01-3.97
		c0-0.32-0.1-0.5-0.38-0.66c-2.24-1.29-4.47-2.61-6.71-3.88c-0.21-0.12-0.59-0.13-0.79-0.02c-2.27,1.28-4.51,2.61-6.77,3.9
		c-0.28,0.16-0.37,0.34-0.37,0.66c0.01,2.6,0.01,5.21,0,7.81c0,0.34,0.1,0.54,0.4,0.71c2.24,1.28,4.48,2.58,6.71,3.88
		c0.29,0.17,0.5,0.19,0.8,0.01c2.23-1.31,4.46-2.61,6.71-3.9c0.3-0.17,0.4-0.37,0.4-0.71C80.48,107.71,80.49,106.43,80.49,105.15z"
		/>
	<path class="st3" d="M117.96,73.75c0-1.42-0.02-2.85,0.02-4.27c0.01-0.22,0.17-0.54,0.36-0.65c2.46-1.46,4.94-2.9,7.43-4.32
		c0.18-0.1,0.51-0.09,0.69,0.01c2.45,1.4,4.89,2.83,7.34,4.24c0.35,0.2,0.45,0.43,0.45,0.81c-0.01,2.81-0.02,5.61,0,8.42
		c0,0.39-0.11,0.61-0.45,0.81c-2.43,1.39-4.86,2.8-7.28,4.23c-0.29,0.17-0.5,0.18-0.8,0.01c-2.45-1.44-4.91-2.87-7.38-4.29
		c-0.28-0.16-0.37-0.34-0.37-0.66C117.97,76.64,117.96,75.2,117.96,73.75z M118.62,73.74c0,1.32-0.02,2.64,0.02,3.97
		c0.01,0.22,0.18,0.53,0.37,0.65c2.24,1.33,4.49,2.63,6.76,3.92c0.18,0.1,0.5,0.1,0.68,0c2.26-1.29,4.51-2.6,6.77-3.9
		c0.27-0.15,0.39-0.31,0.39-0.65c-0.02-2.62,0-5.25-0.03-7.87c0-0.22-0.18-0.53-0.36-0.64c-2.22-1.32-4.47-2.6-6.69-3.92
		c-0.33-0.19-0.55-0.16-0.86,0.02c-2.21,1.3-4.43,2.59-6.65,3.87c-0.3,0.17-0.4,0.38-0.4,0.72
		C118.63,71.18,118.62,72.46,118.62,73.74z"/>
	<path class="st1" d="M107.84,58.44c0,1.4-0.01,2.81,0.01,4.21c0,0.36-0.09,0.57-0.42,0.76c-2.43,1.4-4.85,2.82-7.27,4.25
		c-0.31,0.18-0.53,0.22-0.86,0.03c-2.43-1.44-4.87-2.87-7.31-4.28c-0.3-0.17-0.41-0.36-0.41-0.7c0.01-2.85,0.01-5.69,0-8.54
		c0-0.34,0.09-0.54,0.4-0.71c2.46-1.42,4.91-2.87,7.38-4.28c0.19-0.11,0.54-0.1,0.73,0.01c2.45,1.4,4.88,2.84,7.33,4.25
		c0.35,0.2,0.44,0.43,0.43,0.81C107.83,55.63,107.84,57.03,107.84,58.44z M107.21,58.45c0-1.3-0.01-2.61,0.01-3.91
		c0-0.34-0.09-0.54-0.4-0.71c-2.24-1.29-4.47-2.6-6.7-3.92c-0.29-0.17-0.51-0.18-0.81-0.01c-2.23,1.32-4.46,2.62-6.7,3.92
		c-0.3,0.17-0.41,0.36-0.41,0.71c0.01,2.59,0.02,5.17,0,7.76c0,0.38,0.15,0.56,0.45,0.74c2.24,1.29,4.47,2.61,6.71,3.89
		c0.18,0.1,0.5,0.1,0.68,0c2.26-1.29,4.51-2.62,6.76-3.92c0.29-0.17,0.41-0.36,0.41-0.71C107.2,61.02,107.21,59.74,107.21,58.45z"/>
	<path class="st3" d="M160.46,120.26c0,1.42,0.02,2.84-0.02,4.27c-0.01,0.22-0.17,0.53-0.36,0.64c-2.46,1.46-4.94,2.9-7.43,4.32
		c-0.17,0.1-0.5,0.08-0.68-0.02c-2.47-1.41-4.93-2.84-7.39-4.26c-0.29-0.17-0.42-0.36-0.41-0.71c0.01-2.86,0-5.73,0.02-8.59
		c0-0.22,0.17-0.54,0.36-0.65c2.46-1.46,4.94-2.9,7.43-4.31c0.17-0.1,0.51-0.08,0.69,0.02c2.47,1.41,4.93,2.84,7.39,4.26
		c0.3,0.17,0.41,0.36,0.41,0.71C160.44,117.38,160.46,118.82,160.46,120.26z M159.82,120.26c0-1.3-0.01-2.6,0.01-3.91
		c0.01-0.37-0.12-0.57-0.43-0.75c-2.24-1.28-4.47-2.59-6.72-3.86c-0.19-0.11-0.54-0.11-0.73-0.01c-2.27,1.29-4.52,2.59-6.76,3.93
		c-0.19,0.11-0.36,0.42-0.36,0.65c-0.02,2.6-0.01,5.21-0.02,7.81c0,0.34,0.1,0.54,0.4,0.71c2.26,1.29,4.51,2.61,6.77,3.9
		c0.18,0.1,0.51,0.1,0.68,0c2.26-1.29,4.51-2.61,6.77-3.9c0.3-0.17,0.4-0.37,0.4-0.71C159.81,122.83,159.82,121.54,159.82,120.26z"
		/>
	<path class="st4" d="M71.55,120.67c0,1.3-0.01,2.6,0.01,3.91c0.01,0.35-0.12,0.53-0.41,0.7c-2.24,1.29-4.47,2.6-6.69,3.92
		c-0.3,0.18-0.53,0.15-0.81-0.02c-2.21-1.3-4.42-2.6-6.64-3.88c-0.32-0.18-0.44-0.39-0.44-0.75c0.01-2.56,0.01-5.13,0-7.69
		c0-0.36,0.09-0.58,0.42-0.77c2.24-1.29,4.46-2.61,6.7-3.9c0.19-0.11,0.55-0.12,0.74-0.01c2.26,1.29,4.51,2.61,6.74,3.95
		c0.19,0.11,0.36,0.42,0.37,0.64C71.57,118.07,71.55,119.37,71.55,120.67z"/>
	<path class="st5" d="M153.74,104.67c0-1.28,0.01-2.56-0.01-3.85c-0.01-0.36,0.09-0.57,0.41-0.76c2.22-1.28,4.44-2.57,6.64-3.88
		c0.32-0.19,0.55-0.18,0.86,0.01c2.21,1.31,4.42,2.6,6.65,3.87c0.32,0.19,0.43,0.4,0.43,0.76c-0.01,2.56-0.01,5.13,0,7.69
		c0,0.36-0.1,0.57-0.42,0.76c-2.24,1.29-4.48,2.59-6.7,3.9c-0.31,0.18-0.52,0.15-0.81-0.02c-2.21-1.3-4.42-2.6-6.65-3.88
		c-0.33-0.19-0.42-0.4-0.42-0.76C153.75,107.23,153.74,105.95,153.74,104.67z"/>
	<path class="st6" d="M109.69,89.38c0-1.3,0.01-2.6-0.01-3.91c0-0.34,0.11-0.54,0.41-0.71c2.21-1.26,4.41-2.54,6.6-3.83
		c0.38-0.23,0.66-0.2,1.02,0.01c2.17,1.29,4.36,2.55,6.55,3.81c0.29,0.17,0.41,0.35,0.41,0.7c-0.01,2.6-0.01,5.21,0,7.81
		c0,0.34-0.11,0.53-0.41,0.71c-2.24,1.29-4.47,2.6-6.71,3.88c-0.19,0.11-0.54,0.1-0.73,0c-2.21-1.26-4.4-2.55-6.62-3.81
		c-0.41-0.23-0.53-0.49-0.52-0.95C109.71,91.86,109.69,90.62,109.69,89.38z"/>
	<path class="st6" d="M142.33,89.31c0,1.28-0.01,2.56,0.01,3.85c0,0.33-0.07,0.54-0.38,0.72c-2.28,1.3-4.54,2.64-6.82,3.94
		c-0.16,0.09-0.46,0.08-0.63-0.01c-2.28-1.31-4.54-2.63-6.8-3.97c-0.17-0.1-0.34-0.39-0.34-0.6c-0.02-2.62-0.02-5.25,0-7.87
		c0-0.22,0.18-0.53,0.37-0.64c2.22-1.33,4.46-2.62,6.69-3.93c0.3-0.18,0.51-0.17,0.81,0c2.23,1.31,4.46,2.61,6.7,3.9
		c0.3,0.17,0.4,0.37,0.4,0.71C142.32,86.71,142.33,88.01,142.33,89.31z"/>
	<path class="st5" d="M145.02,89.12c0-1.28,0.01-2.57-0.01-3.85c-0.01-0.37,0.13-0.57,0.44-0.75c2.21-1.27,4.41-2.55,6.61-3.84
		c0.31-0.18,0.54-0.2,0.86-0.01c2.21,1.31,4.43,2.59,6.66,3.87c0.3,0.17,0.41,0.36,0.41,0.71c-0.01,2.61-0.01,5.21,0,7.82
		c0,0.35-0.12,0.53-0.41,0.7c-2.23,1.28-4.45,2.57-6.66,3.87c-0.29,0.17-0.51,0.19-0.81,0.01c-2.21-1.3-4.43-2.59-6.66-3.87
		c-0.32-0.18-0.44-0.38-0.43-0.75C145.03,91.73,145.02,90.43,145.02,89.12z"/>
	<path class="st7" d="M118.43,104.84c0-1.3,0.01-2.61-0.01-3.91c0-0.33,0.1-0.5,0.38-0.66c2.23-1.28,4.45-2.57,6.66-3.87
		c0.34-0.2,0.58-0.19,0.92,0.01c2.19,1.29,4.4,2.57,6.6,3.84c0.29,0.17,0.42,0.35,0.42,0.7c-0.01,2.61-0.02,5.21,0,7.82
		c0,0.39-0.17,0.56-0.47,0.73c-2.22,1.28-4.44,2.58-6.67,3.86c-0.18,0.1-0.51,0.11-0.68,0.02c-2.25-1.28-4.47-2.6-6.72-3.88
		c-0.35-0.2-0.45-0.42-0.44-0.81C118.45,107.41,118.43,106.12,118.43,104.84z"/>
	<path class="st7" d="M107.06,89.47c0,1.26-0.01,2.53,0.01,3.79c0.01,0.39-0.1,0.61-0.45,0.81c-2.24,1.29-4.48,2.59-6.7,3.91
		c-0.28,0.17-0.47,0.16-0.75,0c-2.23-1.32-4.46-2.62-6.7-3.92c-0.29-0.17-0.42-0.35-0.41-0.7c0.02-2.61,0.02-5.21,0-7.82
		c0-0.35,0.12-0.53,0.41-0.7c2.22-1.28,4.44-2.57,6.65-3.88c0.32-0.19,0.55-0.18,0.86,0c2.19,1.3,4.39,2.59,6.59,3.86
		c0.33,0.19,0.47,0.4,0.47,0.8c-0.03,1.28-0.01,2.57-0.01,3.85C107.04,89.47,107.05,89.47,107.06,89.47z"/>
	<path class="st4" d="M74.41,89.56c0-1.28,0.01-2.57-0.01-3.85c-0.01-0.36,0.08-0.58,0.41-0.77c2.24-1.29,4.47-2.6,6.7-3.92
		c0.27-0.16,0.47-0.18,0.75-0.01c2.24,1.33,4.49,2.64,6.75,3.94c0.3,0.17,0.4,0.38,0.4,0.72c-0.01,2.59-0.01,5.17,0,7.76
		c0,0.35-0.13,0.54-0.42,0.71c-2.24,1.29-4.47,2.61-6.71,3.89c-0.19,0.11-0.54,0.11-0.73,0.01c-2.26-1.29-4.51-2.62-6.77-3.92
		c-0.28-0.16-0.39-0.33-0.38-0.66C74.42,92.17,74.41,90.87,74.41,89.56z"/>
	<path class="st1" d="M83.28,73.92c0-1.28-0.02-2.57,0.02-3.85c0.01-0.22,0.18-0.53,0.37-0.64c2.24-1.33,4.5-2.64,6.76-3.92
		c0.19-0.11,0.55-0.11,0.74,0c2.26,1.29,4.52,2.6,6.76,3.93c0.17,0.1,0.34,0.39,0.34,0.6c0.02,2.65,0.02,5.29,0,7.94
		c0,0.2-0.18,0.48-0.36,0.58c-2.24,1.33-4.49,2.64-6.76,3.93c-0.19,0.11-0.54,0.09-0.74-0.02c-2.23-1.27-4.44-2.57-6.67-3.85
		c-0.34-0.19-0.48-0.4-0.47-0.8C83.3,76.53,83.28,75.22,83.28,73.92z"/>
	<path class="st6" d="M115.94,73.93c0,1.28-0.02,2.57,0.01,3.85c0.01,0.37-0.11,0.57-0.43,0.75c-2.25,1.28-4.48,2.59-6.73,3.86
		c-0.19,0.11-0.54,0.09-0.73-0.01c-2.21-1.26-4.41-2.55-6.62-3.81c-0.38-0.22-0.5-0.47-0.5-0.9c0.02-2.53,0.02-5.05,0-7.58
		c0-0.38,0.09-0.61,0.44-0.81c2.19-1.25,4.38-2.53,6.55-3.82c0.38-0.22,0.65-0.21,1.02,0.01c2.18,1.29,4.36,2.56,6.56,3.81
		c0.35,0.2,0.45,0.43,0.44,0.81C115.93,71.36,115.94,72.64,115.94,73.93z"/>
	<path class="st4" d="M136.09,104.68c0-1.28,0.01-2.56-0.01-3.85c0-0.34,0.09-0.54,0.39-0.71c2.26-1.3,4.5-2.63,6.76-3.92
		c0.17-0.1,0.5-0.1,0.68,0c2.28,1.3,4.55,2.62,6.8,3.96c0.19,0.11,0.36,0.43,0.36,0.65c0.02,2.6,0.03,5.21,0,7.81
		c0,0.22-0.18,0.53-0.37,0.64c-2.27,1.35-4.56,2.68-6.86,3.99c-0.15,0.08-0.42,0.07-0.57-0.01c-2.29-1.32-4.58-2.65-6.85-4
		c-0.17-0.1-0.32-0.39-0.32-0.6C136.08,107.32,136.09,106,136.09,104.68z"/>
	<path class="st6" d="M101.14,42.83c0-1.3-0.02-2.61,0.02-3.91c0.01-0.22,0.17-0.53,0.36-0.65c2.24-1.33,4.49-2.65,6.76-3.94
		c0.19-0.11,0.54-0.09,0.74,0.02c2.25,1.28,4.48,2.58,6.71,3.91c0.19,0.11,0.37,0.42,0.38,0.64c0.03,2.63,0.02,5.25,0,7.88
		c0,0.21-0.16,0.5-0.34,0.61c-2.26,1.34-4.53,2.66-6.81,3.96c-0.16,0.09-0.47,0.09-0.63,0c-2.28-1.3-4.55-2.62-6.82-3.96
		c-0.17-0.1-0.34-0.39-0.34-0.59C101.13,45.47,101.14,44.15,101.14,42.83z"/>
	<path class="st4" d="M89.21,120.65c0,1.3,0.01,2.6-0.02,3.91c0,0.2-0.16,0.49-0.34,0.59c-2.26,1.34-4.53,2.66-6.81,3.96
		c-0.17,0.1-0.5,0.09-0.68-0.01c-2.25-1.28-4.48-2.57-6.7-3.9c-0.2-0.12-0.41-0.45-0.41-0.68c-0.03-2.6-0.03-5.21,0-7.81
		c0-0.24,0.19-0.57,0.4-0.69c2.22-1.32,4.46-2.62,6.7-3.9c0.19-0.11,0.54-0.11,0.73,0c2.26,1.29,4.51,2.61,6.77,3.91
		c0.29,0.16,0.37,0.35,0.36,0.67C89.2,118.01,89.21,119.33,89.21,120.65z"/>
	<path class="st6" d="M124.87,58.36c0,1.28-0.01,2.56,0.01,3.85c0.01,0.35-0.1,0.54-0.4,0.71c-2.26,1.3-4.5,2.62-6.76,3.92
		c-0.17,0.1-0.5,0.1-0.68,0c-2.26-1.29-4.5-2.62-6.76-3.92c-0.3-0.17-0.4-0.37-0.4-0.71c0.01-2.58,0.01-5.17,0-7.75
		c0-0.34,0.11-0.54,0.4-0.71c2.22-1.28,4.43-2.58,6.64-3.89c0.34-0.2,0.59-0.19,0.92,0c2.21,1.31,4.42,2.61,6.64,3.89
		c0.3,0.18,0.4,0.38,0.39,0.71C124.86,55.75,124.87,57.06,124.87,58.36z"/>
	<path class="st4" d="M106.87,120.5c0,1.3-0.01,2.6,0.01,3.91c0,0.32-0.09,0.5-0.37,0.66c-2.26,1.3-4.5,2.62-6.77,3.9
		c-0.19,0.11-0.54,0.1-0.73-0.01c-2.25-1.27-4.48-2.58-6.72-3.86c-0.32-0.18-0.43-0.39-0.43-0.76c0.02-2.58,0.02-5.17,0-7.75
		c0-0.35,0.12-0.54,0.41-0.71c2.22-1.28,4.44-2.57,6.65-3.87c0.33-0.19,0.57-0.21,0.91-0.01c2.22,1.32,4.46,2.61,6.68,3.93
		c0.17,0.1,0.33,0.39,0.33,0.6C106.88,117.85,106.87,119.18,106.87,120.5z"/>
	<path class="st5" d="M162.5,120.07c0-1.28,0.01-2.56-0.01-3.85c0-0.34,0.09-0.54,0.39-0.72c2.26-1.3,4.5-2.63,6.76-3.92
		c0.19-0.11,0.54-0.09,0.73,0.02c2.24,1.28,4.47,2.6,6.71,3.89c0.29,0.17,0.41,0.35,0.41,0.7c-0.02,2.58-0.02,5.17,0,7.75
		c0,0.37-0.13,0.57-0.44,0.75c-2.22,1.28-4.44,2.58-6.65,3.88c-0.29,0.17-0.51,0.19-0.81,0.01c-2.21-1.31-4.42-2.6-6.65-3.88
		c-0.33-0.19-0.47-0.4-0.47-0.8C162.51,122.63,162.5,121.35,162.5,120.07z"/>
	<path class="st4" d="M98.15,105c0,1.3-0.01,2.61,0.01,3.91c0.01,0.35-0.11,0.54-0.41,0.71c-2.24,1.28-4.48,2.58-6.71,3.89
		c-0.3,0.18-0.52,0.16-0.81-0.01c-2.21-1.3-4.43-2.59-6.66-3.87c-0.32-0.18-0.44-0.38-0.44-0.75c0.02-2.59,0.02-5.17,0-7.76
		c0-0.35,0.12-0.54,0.41-0.71c2.22-1.28,4.44-2.57,6.65-3.88c0.31-0.18,0.55-0.19,0.87-0.01c2.23,1.31,4.47,2.6,6.7,3.92
		c0.19,0.11,0.36,0.42,0.37,0.64C98.17,102.39,98.15,103.69,98.15,105z"/>
	<path class="st8" d="M124.52,120.48c0,1.28,0.02,2.56-0.02,3.85c-0.01,0.22-0.18,0.53-0.37,0.64c-2.24,1.34-4.49,2.65-6.75,3.94
		c-0.19,0.11-0.55,0.1-0.74-0.01c-2.24-1.28-4.48-2.59-6.69-3.92c-0.2-0.12-0.4-0.45-0.41-0.68c-0.04-2.6-0.04-5.21-0.02-7.81
		c0-0.22,0.19-0.52,0.38-0.64c2.22-1.32,4.46-2.61,6.69-3.93c0.31-0.19,0.55-0.19,0.86,0c2.22,1.32,4.46,2.61,6.68,3.94
		c0.19,0.11,0.36,0.42,0.36,0.65C124.53,117.84,124.52,119.16,124.52,120.48z"/>
	<path class="st4" d="M151.25,73.73c0,1.3,0.02,2.61-0.02,3.91c-0.01,0.22-0.18,0.53-0.36,0.64c-2.24,1.33-4.5,2.63-6.77,3.92
		c-0.18,0.1-0.51,0.12-0.68,0.02c-2.28-1.3-4.55-2.61-6.81-3.95c-0.18-0.1-0.35-0.39-0.35-0.6c-0.02-2.64-0.02-5.29,0-7.94
		c0-0.19,0.15-0.46,0.32-0.56c2.26-1.34,4.53-2.66,6.81-3.96c0.19-0.11,0.55-0.09,0.74,0.02c2.26,1.29,4.52,2.6,6.76,3.93
		c0.17,0.1,0.33,0.39,0.34,0.6c0.03,1.32,0.02,2.64,0.02,3.97C151.24,73.73,151.25,73.73,151.25,73.73z"/>
	<path class="st6" d="M142.18,120.31c0,1.28-0.01,2.57,0.01,3.85c0,0.33-0.07,0.54-0.38,0.72c-2.26,1.3-4.51,2.62-6.77,3.91
		c-0.18,0.1-0.51,0.1-0.69,0c-2.27-1.29-4.51-2.61-6.77-3.91c-0.3-0.17-0.41-0.36-0.41-0.71c0.01-2.59,0.02-5.17,0-7.76
		c0-0.37,0.13-0.57,0.44-0.75c2.23-1.28,4.44-2.57,6.66-3.87c0.3-0.17,0.52-0.17,0.81,0c2.23,1.31,4.47,2.61,6.71,3.89
		c0.3,0.17,0.4,0.37,0.4,0.71C142.17,117.71,142.18,119.01,142.18,120.31z"/>
	<path class="st5" d="M133.78,42.8c0,1.26-0.01,2.52,0.01,3.79c0.01,0.39-0.1,0.61-0.45,0.81c-2.25,1.28-4.47,2.59-6.72,3.87
		c-0.17,0.1-0.5,0.09-0.67-0.01c-2.26-1.29-4.52-2.59-6.76-3.92c-0.19-0.11-0.37-0.42-0.37-0.64c-0.03-2.62-0.03-5.25,0-7.87
		c0-0.22,0.19-0.52,0.37-0.63c2.22-1.32,4.46-2.61,6.69-3.92c0.29-0.17,0.51-0.18,0.81,0c2.21,1.3,4.43,2.6,6.65,3.87
		c0.35,0.2,0.45,0.43,0.44,0.81C133.77,40.23,133.78,41.52,133.78,42.8z"/>
	<path class="st7" d="M115.79,104.93c0,1.28-0.01,2.57,0.01,3.85c0,0.33-0.07,0.55-0.38,0.72c-2.26,1.3-4.51,2.62-6.77,3.92
		c-0.18,0.1-0.51,0.11-0.69,0.01c-2.28-1.3-4.55-2.62-6.81-3.96c-0.17-0.1-0.34-0.39-0.34-0.6c-0.02-2.65-0.02-5.29,0-7.94
		c0-0.19,0.15-0.46,0.32-0.56c2.26-1.34,4.53-2.66,6.81-3.96c0.19-0.11,0.54-0.09,0.74,0.02c2.27,1.29,4.52,2.6,6.76,3.93
		c0.19,0.11,0.35,0.43,0.35,0.65C115.81,102.32,115.79,103.62,115.79,104.93z"/>
	<path class="st4" d="M127.52,58.19c0-1.28,0.01-2.57-0.01-3.85c0-0.34,0.09-0.54,0.4-0.72c2.23-1.28,4.44-2.57,6.66-3.87
		c0.31-0.18,0.54-0.22,0.86-0.02c2.23,1.32,4.47,2.6,6.69,3.93c0.19,0.11,0.37,0.42,0.37,0.65c0.03,2.61,0.03,5.21,0,7.82
		c0,0.23-0.2,0.56-0.41,0.68c-2.22,1.32-4.46,2.62-6.71,3.9c-0.19,0.11-0.54,0.1-0.73-0.01c-2.25-1.28-4.48-2.59-6.72-3.87
		c-0.3-0.17-0.41-0.37-0.4-0.71C127.53,60.8,127.52,59.49,127.52,58.19z"/>
	<path class="st4" d="M80.49,105.15c0,1.28-0.01,2.56,0.01,3.85c0.01,0.34-0.1,0.54-0.4,0.71c-2.24,1.29-4.48,2.58-6.71,3.9
		c-0.3,0.18-0.51,0.16-0.8-0.01c-2.23-1.31-4.47-2.6-6.71-3.88c-0.3-0.17-0.41-0.36-0.4-0.71c0.01-2.6,0.01-5.21,0-7.81
		c0-0.32,0.09-0.5,0.37-0.66c2.26-1.3,4.5-2.62,6.77-3.9c0.2-0.11,0.58-0.1,0.79,0.02c2.25,1.28,4.47,2.59,6.71,3.88
		c0.28,0.16,0.38,0.34,0.38,0.66C80.48,102.5,80.49,103.82,80.49,105.15z"/>
	<path class="st9" d="M118.62,73.74c0-1.28,0.01-2.56-0.01-3.85c0-0.34,0.09-0.54,0.4-0.72c2.23-1.28,4.44-2.57,6.65-3.87
		c0.3-0.18,0.53-0.21,0.86-0.02c2.22,1.32,4.47,2.6,6.69,3.92c0.19,0.11,0.36,0.42,0.36,0.64c0.03,2.62,0.01,5.25,0.03,7.87
		c0,0.33-0.12,0.49-0.39,0.65c-2.26,1.3-4.51,2.62-6.77,3.9c-0.17,0.1-0.5,0.1-0.68,0c-2.26-1.29-4.52-2.59-6.76-3.92
		c-0.19-0.11-0.36-0.42-0.37-0.65C118.6,76.38,118.62,75.06,118.62,73.74z"/>
	<path class="st5" d="M107.21,58.45c0,1.28-0.01,2.57,0.01,3.85c0.01,0.35-0.11,0.54-0.41,0.71c-2.26,1.3-4.5,2.63-6.76,3.92
		c-0.17,0.1-0.5,0.1-0.68,0c-2.24-1.28-4.47-2.6-6.71-3.89c-0.3-0.18-0.46-0.36-0.45-0.74c0.02-2.59,0.02-5.17,0-7.76
		c0-0.35,0.11-0.54,0.41-0.71c2.24-1.29,4.47-2.6,6.7-3.92c0.3-0.18,0.52-0.17,0.81,0.01c2.23,1.32,4.46,2.63,6.7,3.92
		c0.3,0.17,0.4,0.37,0.4,0.71C107.2,55.85,107.21,57.15,107.21,58.45z"/>
	<path class="st7" d="M159.82,120.26c0,1.28-0.01,2.56,0.01,3.85c0,0.34-0.1,0.54-0.4,0.71c-2.26,1.3-4.51,2.62-6.77,3.9
		c-0.18,0.1-0.51,0.1-0.68,0c-2.27-1.29-4.51-2.6-6.77-3.9c-0.3-0.17-0.4-0.36-0.4-0.71c0.01-2.6,0-5.21,0.02-7.81
		c0-0.22,0.17-0.53,0.36-0.65c2.24-1.33,4.49-2.64,6.76-3.93c0.19-0.11,0.54-0.1,0.73,0.01c2.25,1.27,4.48,2.58,6.72,3.86
		c0.32,0.18,0.44,0.38,0.43,0.75C159.81,117.66,159.82,118.96,159.82,120.26z"/>
	<path class="st10" d="M110,27.31c0-1.3-0.02-2.61,0.02-3.91c0.01-0.22,0.17-0.53,0.36-0.65c2.24-1.33,4.49-2.65,6.76-3.94
		c0.19-0.11,0.54-0.09,0.74,0.02c2.25,1.28,4.48,2.58,6.71,3.91c0.19,0.11,0.37,0.42,0.38,0.64c0.03,2.63,0.02,5.25,0,7.88
		c0,0.21-0.16,0.5-0.34,0.61c-2.26,1.34-4.53,2.66-6.81,3.96c-0.16,0.09-0.47,0.09-0.63,0c-2.28-1.3-4.55-2.62-6.82-3.96
		c-0.17-0.1-0.34-0.39-0.34-0.59C109.98,29.96,110,28.64,110,27.31z"/>
	<text transform="matrix(0.9917 0 0 1 115.5771 29.8277)" class="st1 st11 st12">1</text>
	<text transform="matrix(0.9917 0 0 1 106.6606 45.5903)" class="st1 st11 st12">2</text>
	<text transform="matrix(0.9917 0 0 1 124.2617 45.8325)" class="st1 st11 st12">3</text>
	<text transform="matrix(0.9917 0 0 1 97.4126 61.1558)" class="st1 st11 st12">4</text>
	<text transform="matrix(0.9917 0 0 1 115.5073 61.1558)" class="st1 st11 st12">5</text>
	<text transform="matrix(0.9917 0 0 1 132.9438 60.6089)" class="st1 st11 st12">6</text>
	<text transform="matrix(0.9917 0 0 1 88.834 76.604)" class="st1 st11 st12">7</text>
	<text transform="matrix(0.9917 0 0 1 106.5088 76.604)" class="st1 st11 st12">8</text>
	<text transform="matrix(0.9917 0 0 1 124.0332 76.1734)" class="st1 st11 st12">9</text>
	<text transform="matrix(0.9917 0 0 1 139.9336 76.1734)" class="st1 st11 st12">10</text>
	<text transform="matrix(0.9917 0 0 1 78.4549 92.0126)" class="st1 st11 st12">11</text>
	<text transform="matrix(0.9917 0 0 1 95.9057 91.563)" class="st1 st11 st12">12</text>
	<text transform="matrix(0.9724 0 0 1 113.8359 91.5191)" class="st1 st11 st13">13</text>
	<text transform="matrix(0.9917 0 0 1 131.3794 91.563)" class="st1 st11 st12">14</text>
	<text transform="matrix(0.9917 0 0 1 148.9678 91.8228)" class="st1 st11 st12">15</text>
	<text transform="matrix(0.9917 0 0 1 69.4238 107.772)" class="st1 st11 st12">16</text>
	<text transform="matrix(0.9917 0 0 1 87.4761 107.772)" class="st1 st11 st12">17</text>
	<text transform="matrix(0.9917 0 0 1 104.6743 107.772)" class="st1 st11 st12">18</text>
	<text transform="matrix(0.9917 0 0 1 122.3525 107.772)" class="st1 st11 st12">19</text>
	<text transform="matrix(0.9917 0 0 1 139.4526 107.3765)" class="st1 st11 st12">20</text>
	<text transform="matrix(0.9917 0 0 1 157.9458 107.3765)" class="st1 st11 st12">21</text>
	<text transform="matrix(0.9917 0 0 1 59.9736 123.02)" class="st1 st11 st12">22</text>
	<text transform="matrix(0.9917 0 0 1 77.7202 123.02)" class="st1 st11 st12">23</text>
	<text transform="matrix(0.9917 0 0 1 95.4502 123.02)" class="st1 st11 st12">24</text>
	<text transform="matrix(0.9917 0 0 1 113.0088 123.02)" class="st1 st11 st12">25</text>
	<text transform="matrix(0.9917 0 0 1 130.9726 123.02)" class="st1 st11 st12">26</text>
	<text transform="matrix(0.9917 0 0 1 148.7085 123.0197)" class="st1 st11 st12">27</text>
	<text transform="matrix(0.9917 0 0 1 165.8954 122.7674)" class="st1 st11 st12">28</text>
</g>
</svg>
